# xmcd
#
# Track frame offsets: 
#        150
#        9102
#        20405
#        31742
#        43285
#        52717
#        63185
#        76442
#        90952
#        101837
#        113222
#        125192
#        138200
#        148887
#        158807
#        168642
#        178667
#        189515
#        200790
#        209860
#        222077
#        232307
#        242932
#        253055
#        264622
#        276552
#        285025
#        298885
#
# Disc length: 4091 seconds
#
# Revision: 1
# Processed by: cddbd v1.5.2PL0 Copyright (c) Steve Scherf et al.
# Submitted via: ExactAudioCopy v0.99pb5
#
DISCID=af0ff91c
DTITLE=Various Artist - Red River Blues - Shreveport Blues from RAM Records
DYEAR=1961
DGENRE=Blues
TTITLE0=Sonny Boy "Jeff" Williamson - Mailman Mailman
TTITLE1=Sonny Boy "Jeff" Williamson - Pretty Lil Thing
TTITLE2=Sonny Boy "Jeff" Williamson - I Gotta Cry
TTITLE3=Sonny Boy "Jeff" Williamson - You Better Sit Down
TTITLE4=June "Bug" Bailey - Lee Street Blues
TTITLE5=Elgie Brown - Gimmie Gimmie
TTITLE6=Banny Price - Rushin'
TTITLE7=Elgie Brown - You'll Be Back
TTITLE8=Elgie Brown - Let Me Feel It
TTITLE9=TV Slim with Eddie Williams - The Fight
TTITLE10=TV Slim with Eddie Williams - Goin' To California
TTITLE11=TV Slim - The Fight
TTITLE12=TV Slim - Darling Remember
TTITLE13=TV Slim and His Heartbreakers - Flat Foot Sam
TTITLE14=TV Slim and His Heartbreakers - Darling Remember
TTITLE15=Sherman (Blues) Johnson - Hey Pretty Baby
TTITLE16=Little Mevin Underwood - Something's Wrong Baby
TTITLE17=Little Melvin Underwood - Little Melvin's Gonna Move
TTITLE18=Vincent Williams - Tryin' To Make A Fool Of Me
TTITLE19=Vincent Williams - Going Back To Chicago
TTITLE20=LC Steel - Don't Play No Woman For No Fool
TTITLE21=Chico Chism and His Jetanairs - Hot Tamales and Bar-B-Que
TTITLE22=Chico Chism with Jerry and Garland - Romp and Stomp
TTITLE23=Jesse Thomas - Watch Out
TTITLE24=Jesse Thomas - My Baby
TTITLE25=Jesse Thomas - Anything You Want
TTITLE26=Jesse Thomas - Guitar Riff
TTITLE27=Jesse Thomas - Everything I Do For You
EXTD=YEAR: 1961
EXTT0=
EXTT1=
EXTT2=
EXTT3=
EXTT4=
EXTT5=
EXTT6=
EXTT7=
EXTT8=
EXTT9=
EXTT10=
EXTT11=
EXTT12=
EXTT13=
EXTT14=
EXTT15=
EXTT16=
EXTT17=
EXTT18=
EXTT19=
EXTT20=
EXTT21=
EXTT22=
EXTT23=
EXTT24=
EXTT25=
EXTT26=
EXTT27=
PLAYORDER=
